<svg xmlns="http://www.w3.org/2000/svg" viewBox="0 0 24.77 32.54"><defs><style>.cls-1{fill:#a92933;}</style></defs><title>Fichier 3</title><g id="Calque_2" data-name="Calque 2"><g id="Calque_1-2" data-name="Calque 1"><path class="cls-1" d="M24.77,23.51a1.16,1.16,0,0,1-1.19,1.12H1.19A1.16,1.16,0,0,1,0,23.51V1.12A1.16,1.16,0,0,1,1.19,0h22.4a1.16,1.16,0,0,1,1.19,1.12ZM21.84,7.31A1.16,1.16,0,0,0,23,6.19V5.1A1.16,1.16,0,0,0,21.84,4H2.93A1.16,1.16,0,0,0,1.75,5.1V6.19A1.16,1.16,0,0,0,2.93,7.31Zm0,6.64A1.16,1.16,0,0,0,23,12.83V11.77a1.16,1.16,0,0,0-1.19-1.12H2.93a1.16,1.16,0,0,0-1.19,1.12v1.06a1.16,1.16,0,0,0,1.19,1.12Zm0,6.69A1.16,1.16,0,0,0,23,19.52V18.41a1.16,1.16,0,0,0-1.19-1.12H2.93a1.16,1.16,0,0,0-1.19,1.12v1.11a1.16,1.16,0,0,0,1.19,1.12Z"/><path class="cls-1" d="M21.83,32.54A1.16,1.16,0,0,0,23,31.42V30.33a1.16,1.16,0,0,0-1.19-1.12H2.92a1.16,1.16,0,0,0-1.19,1.12v1.09a1.16,1.16,0,0,0,1.19,1.12Z"/></g></g></svg>